<?xml version="1.0" encoding="UTF-8" standalone="no"?>
<!-- Created with Inkscape (http://www.inkscape.org/) -->

<svg
   width="760"
   height="320"
   viewBox="0 0 201.08346 84.666666"
   version="1.1"
   id="svg5"
   xml:space="preserve"
   inkscape:version="1.2.2 (732a01da63, 2022-12-09)"
   sodipodi:docname="logo-10.svg"
   xmlns:inkscape="http://www.inkscape.org/namespaces/inkscape"
   xmlns:sodipodi="http://sodipodi.sourceforge.net/DTD/sodipodi-0.dtd"
   xmlns="http://www.w3.org/2000/svg"
   xmlns:svg="http://www.w3.org/2000/svg"><sodipodi:namedview
     id="namedview7"
     pagecolor="#ffffff"
     bordercolor="#000000"
     borderopacity="0.25"
     inkscape:showpageshadow="2"
     inkscape:pageopacity="0.0"
     inkscape:pagecheckerboard="0"
     inkscape:deskcolor="#d1d1d1"
     inkscape:document-units="mm"
     showgrid="false"
     showguides="true"
     inkscape:zoom="0.93539562"
     inkscape:cx="275.28459"
     inkscape:cy="90.336108"
     inkscape:window-width="1350"
     inkscape:window-height="728"
     inkscape:window-x="-8"
     inkscape:window-y="0"
     inkscape:window-maximized="0"
     inkscape:current-layer="layer1"><sodipodi:guide
       position="9.9707174,16.215243"
       orientation="1,0"
       id="guide200"
       inkscape:locked="false" /><sodipodi:guide
       position="189.98475,41.514478"
       orientation="1,0"
       id="guide202"
       inkscape:locked="false" /><sodipodi:guide
       position="35.351815,74.716182"
       orientation="0,-1"
       id="guide258"
       inkscape:locked="false" /><sodipodi:guide
       position="55.015731,10.133813"
       orientation="0,-1"
       id="guide260"
       inkscape:locked="false" /><sodipodi:guide
       position="101.40524,33.664064"
       orientation="1,0"
       id="guide320"
       inkscape:locked="false" /><sodipodi:guide
       position="36.205737,42.238095"
       orientation="0,-1"
       id="guide322"
       inkscape:locked="false" /></sodipodi:namedview><defs
     id="defs2"><rect
       x="516.35906"
       y="111.1829"
       width="345.30844"
       height="127.2189"
       id="rect995" /><rect
       x="162.49809"
       y="68.420248"
       width="133.6333"
       height="35.27919"
       id="rect989" /><rect
       x="118.66637"
       y="59.867717"
       width="520.63532"
       height="207.39888"
       id="rect933" /><style
       id="style3233">.cls-1{fill:#fff}</style><clipPath
       clipPathUnits="userSpaceOnUse"
       id="clipPath3055"><path
         inkscape:connector-curvature="0"
         d="m 263.19,605.947 68.896,0 0,41.062 -68.896,0 0,-41.062 z"
         id="path3057" /></clipPath><clipPath
       id="clipPath3536"
       clipPathUnits="userSpaceOnUse"><path
         id="path3538"
         d="m283.61 700.16h166.16v-25.242h-166.16v25.242z" /></clipPath><clipPath
       id="clipPath3560"
       clipPathUnits="userSpaceOnUse"><path
         id="path3562"
         d="m283.61 700.16h166.16v-25.242h-166.16v25.242z" /></clipPath><clipPath
       id="clipPath3580"
       clipPathUnits="userSpaceOnUse"><path
         id="path3582"
         d="m283.61 700.16h166.16v-25.242h-166.16v25.242z" /></clipPath><clipPath
       id="clipPath2855"><path
         id="path2857"
         d="m0 595.28h841.89v-595.28h-841.89v595.28z" /></clipPath></defs><g
     inkscape:label="Capa 1"
     inkscape:groupmode="layer"
     id="layer1"><g
       aria-label="Y MÃS..."
       transform="matrix(0.26458333,0,0,0.26458333,2.7920238,15.867026)"
       id="text931"
       style="font-size:96px;white-space:pre;shape-inside:url(#rect933);display:inline"><path
         d="m 233.36621,77.654023 -24.5625,39.187497 v 30.60938 h -9.28125 v -29.625 L 174.86621,77.654023 h 10.26563 l 19.07812,31.218747 19.26563,-31.218747 z"
         style="text-align:center;text-anchor:middle"
         id="path1101" /><path
         d="m 338.92871,147.4509 h -9.28125 V 87.310273 l -19.40625,40.921877 h -5.53125 L 285.44434,87.310273 V 147.4509 h -8.67188 V 77.654023 h 12.65625 l 18.60938,38.859377 18,-38.859377 h 12.89062 z"
         style="text-align:center;text-anchor:middle"
         id="path1103" /><path
         d="m 412.70996,147.4509 h -9.89062 l -6.84375,-19.45313 h -30.1875 l -6.84375,19.45313 h -9.42188 l 25.40625,-69.796877 h 12.375 z M 393.11621,120.02902 380.88184,85.763398 368.60059,120.02902 Z m -0.0469,-68.624997 -12.79688,17.53125 h -6.98437 l 8.39062,-17.53125 z"
         style="text-align:center;text-anchor:middle"
         id="path1105" /><path
         d="m 474.02246,127.52902 q 0,4.07813 -1.92187,8.0625 -1.875,3.98438 -5.29688,6.75 -3.75,3 -8.76562,4.6875 -4.96875,1.6875 -12,1.6875 -7.54688,0 -13.59375,-1.40625 -6,-1.40625 -12.23438,-4.17187 v -11.625 h 0.65625 q 5.29688,4.40625 12.23438,6.79687 6.9375,2.39063 13.03125,2.39063 8.625,0 13.40625,-3.23438 4.82812,-3.23437 4.82812,-8.625 0,-4.64062 -2.29687,-6.84375 -2.25,-2.20312 -6.89063,-3.42187 -3.51562,-0.9375 -7.64062,-1.54688 -4.07813,-0.60937 -8.67188,-1.54687 -9.28125,-1.96875 -13.78125,-6.70313 -4.45312,-4.78125 -4.45312,-12.421872 0,-8.765625 7.40625,-14.34375 7.40625,-5.625 18.79687,-5.625 7.35938,0 13.5,1.40625 6.14063,1.40625 10.875,3.46875 v 10.96875 h -0.65625 q -3.98437,-3.375 -10.5,-5.578125 -6.46875,-2.25 -13.26562,-2.25 -7.45313,0 -12,3.09375 -4.5,3.09375 -4.5,7.96875 0,4.359375 2.25,6.843747 2.25,2.48438 7.92187,3.79688 3,0.65625 8.53125,1.59375 5.53125,0.9375 9.375,1.92187 7.78125,2.0625 11.71875,6.23438 3.9375,4.17187 3.9375,11.67187 z"
         style="text-align:center;text-anchor:middle"
         id="path1107" /><path
         d="m 501.67871,147.4509 h -11.20312 v -13.35938 h 11.20312 z"
         style="text-align:center;text-anchor:middle"
         id="path1109" /><path
         d="m 536.60059,147.4509 h -11.20313 v -13.35938 h 11.20313 z"
         style="text-align:center;text-anchor:middle"
         id="path1111" /><path
         d="m 571.52246,147.4509 h -11.20312 v -13.35938 h 11.20312 z"
         style="text-align:center;text-anchor:middle"
         id="path1113" /></g><text
       xml:space="preserve"
       transform="scale(0.26458333)"
       id="text987"
       style="white-space:pre;shape-inside:url(#rect989);display:inline;fill:#000000" /><text
       xml:space="preserve"
       transform="scale(0.26458333)"
       id="text993"
       style="font-size:66.6667px;text-align:center;writing-mode:lr-tb;direction:ltr;white-space:pre;shape-inside:url(#rect995);display:inline;fill:#000000" /></g></svg>
