<?xml version="1.0" encoding="UTF-8" standalone="no"?>
<!-- Created with Inkscape (http://www.inkscape.org/) -->

<svg
   width="760"
   height="320"
   viewBox="0 0 201.08346 84.666666"
   version="1.1"
   id="svg5"
   xml:space="preserve"
   inkscape:version="1.2.2 (732a01da63, 2022-12-09)"
   sodipodi:docname="logo-9.svg"
   xmlns:inkscape="http://www.inkscape.org/namespaces/inkscape"
   xmlns:sodipodi="http://sodipodi.sourceforge.net/DTD/sodipodi-0.dtd"
   xmlns="http://www.w3.org/2000/svg"
   xmlns:svg="http://www.w3.org/2000/svg"><sodipodi:namedview
     id="namedview7"
     pagecolor="#ffffff"
     bordercolor="#000000"
     borderopacity="0.25"
     inkscape:showpageshadow="2"
     inkscape:pageopacity="0.0"
     inkscape:pagecheckerboard="0"
     inkscape:deskcolor="#d1d1d1"
     inkscape:document-units="mm"
     showgrid="false"
     showguides="true"
     inkscape:zoom="0.93539562"
     inkscape:cx="503.53026"
     inkscape:cy="90.336108"
     inkscape:window-width="1350"
     inkscape:window-height="728"
     inkscape:window-x="-8"
     inkscape:window-y="0"
     inkscape:window-maximized="0"
     inkscape:current-layer="layer1"><sodipodi:guide
       position="9.9707174,16.215243"
       orientation="1,0"
       id="guide200"
       inkscape:locked="false" /><sodipodi:guide
       position="189.98475,41.514478"
       orientation="1,0"
       id="guide202"
       inkscape:locked="false" /><sodipodi:guide
       position="35.351815,74.716182"
       orientation="0,-1"
       id="guide258"
       inkscape:locked="false" /><sodipodi:guide
       position="55.015731,10.133813"
       orientation="0,-1"
       id="guide260"
       inkscape:locked="false" /><sodipodi:guide
       position="101.40524,33.664064"
       orientation="1,0"
       id="guide320"
       inkscape:locked="false" /><sodipodi:guide
       position="36.205737,42.238095"
       orientation="0,-1"
       id="guide322"
       inkscape:locked="false" /></sodipodi:namedview><defs
     id="defs2"><style
       id="style3233">.cls-1{fill:#fff}</style><clipPath
       clipPathUnits="userSpaceOnUse"
       id="clipPath3055"><path
         inkscape:connector-curvature="0"
         d="m 263.19,605.947 68.896,0 0,41.062 -68.896,0 0,-41.062 z"
         id="path3057" /></clipPath><clipPath
       id="clipPath3536"
       clipPathUnits="userSpaceOnUse"><path
         id="path3538"
         d="m283.61 700.16h166.16v-25.242h-166.16v25.242z" /></clipPath><clipPath
       id="clipPath3560"
       clipPathUnits="userSpaceOnUse"><path
         id="path3562"
         d="m283.61 700.16h166.16v-25.242h-166.16v25.242z" /></clipPath><clipPath
       id="clipPath3580"
       clipPathUnits="userSpaceOnUse"><path
         id="path3582"
         d="m283.61 700.16h166.16v-25.242h-166.16v25.242z" /></clipPath><clipPath
       id="clipPath2855"><path
         id="path2857"
         d="m0 595.28h841.89v-595.28h-841.89v595.28z" /></clipPath></defs><g
     inkscape:label="Capa 1"
     inkscape:groupmode="layer"
     id="layer1"><path
       id="path2859"
       d="M 77.933853,29.472367 H 69.978781 V 39.831 H 61.697805 V 29.472367 h -7.955083 v 26.061388 h 7.955083 V 45.282523 h 8.280976 v 10.251232 h 7.955072 z M 105.60622,50.297035 V 29.472367 h -7.955065 v 26.061388 h 14.384295 l 1.19623,-5.23672 z M 91.770052,29.472367 H 83.81498 v 26.061388 h 7.955072 z m 32.249868,0 h -7.95137 v 26.061388 h 7.95137 z m 39.21985,6.65145 c 0,-1.418433 1.41843,-2.073949 3.70348,-2.073949 2.50726,0 5.23301,0.548115 7.08476,1.314735 l -0.65181,-5.673731 c -2.07396,-0.43701 -3.92569,-0.762917 -7.29957,-0.762917 -6.42923,0 -10.78824,2.536884 -10.78824,7.851378 0,9.158706 12.42519,7.306965 12.42519,11.55856 0,1.633236 -1.20364,2.503553 -4.1442,2.503553 -2.61095,0 -6.64775,-0.870317 -9.0439,-2.070246 l 0.87402,5.999638 c 2.39615,0.874022 5.66262,1.307329 8.28099,1.307329 6.64404,0 12.09185,-2.18135 12.09185,-8.725399 0,-8.717992 -12.53257,-7.084757 -12.53257,-11.228951 m -22.43938,13.195499 c 7.40324,0 12.09186,-3.818288 12.09186,-10.469738 0,-7.303262 -5.01081,-9.921623 -13.18439,-9.921623 -3.15907,0 -6.97365,0.218506 -9.69571,0.544412 v 26.061388 h 7.95507 v -6.214439 z m 4.24788,-10.358634 c 0,3.377575 -1.63323,5.670028 -5.77742,5.670028 h -1.30363 V 33.860991 c 0.46293,-0.02592 0.89625,-0.02592 1.30363,-0.02592 3.92198,0 5.77742,1.85174 5.77742,5.125615 M 38.4918,49.319318 c 7.406956,0 12.091853,-3.818289 12.091853,-10.469739 0,-7.303262 -5.010802,-9.921623 -13.180683,-9.921623 -3.162764,0 -6.973649,0.218506 -9.699411,0.544412 v 26.061388 h 7.955076 v -6.214438 z m 4.251594,-10.358635 c 0,3.377575 -1.636946,5.670028 -5.777435,5.670028 H 35.658635 V 33.860992 c 0.462934,-0.02592 0.899944,-0.02592 1.307324,-0.02592 3.921984,0 5.777435,1.85174 5.777435,5.125615"
       fill="#0b5ed7"
       style="stroke-width:0.370348"
       clip-path="url(#clipPath850)" /></g></svg>
