<?xml version="1.0" encoding="UTF-8" standalone="no"?>
<!-- Created with Inkscape (http://www.inkscape.org/) -->

<svg
   width="760"
   height="320"
   viewBox="0 0 201.08346 84.666666"
   version="1.1"
   id="svg5"
   xml:space="preserve"
   inkscape:version="1.2.2 (732a01da63, 2022-12-09)"
   sodipodi:docname="logo-7.svg"
   xmlns:inkscape="http://www.inkscape.org/namespaces/inkscape"
   xmlns:sodipodi="http://sodipodi.sourceforge.net/DTD/sodipodi-0.dtd"
   xmlns="http://www.w3.org/2000/svg"
   xmlns:svg="http://www.w3.org/2000/svg"><sodipodi:namedview
     id="namedview7"
     pagecolor="#ffffff"
     bordercolor="#000000"
     borderopacity="0.25"
     inkscape:showpageshadow="2"
     inkscape:pageopacity="0.0"
     inkscape:pagecheckerboard="0"
     inkscape:deskcolor="#d1d1d1"
     inkscape:document-units="mm"
     showgrid="false"
     showguides="true"
     inkscape:zoom="0.93539562"
     inkscape:cx="503.53026"
     inkscape:cy="90.336108"
     inkscape:window-width="1350"
     inkscape:window-height="728"
     inkscape:window-x="-8"
     inkscape:window-y="0"
     inkscape:window-maximized="0"
     inkscape:current-layer="layer1"><sodipodi:guide
       position="9.9707174,16.215243"
       orientation="1,0"
       id="guide200"
       inkscape:locked="false" /><sodipodi:guide
       position="189.98475,41.514478"
       orientation="1,0"
       id="guide202"
       inkscape:locked="false" /><sodipodi:guide
       position="35.351815,74.716182"
       orientation="0,-1"
       id="guide258"
       inkscape:locked="false" /><sodipodi:guide
       position="55.015731,10.133813"
       orientation="0,-1"
       id="guide260"
       inkscape:locked="false" /><sodipodi:guide
       position="101.40524,33.664064"
       orientation="1,0"
       id="guide320"
       inkscape:locked="false" /><sodipodi:guide
       position="36.205737,42.238095"
       orientation="0,-1"
       id="guide322"
       inkscape:locked="false" /></sodipodi:namedview><defs
     id="defs2"><style
       id="style3233">.cls-1{fill:#fff}</style><clipPath
       clipPathUnits="userSpaceOnUse"
       id="clipPath3055"><path
         inkscape:connector-curvature="0"
         d="m 263.19,605.947 68.896,0 0,41.062 -68.896,0 0,-41.062 z"
         id="path3057" /></clipPath></defs><g
     inkscape:label="Capa 1"
     inkscape:groupmode="layer"
     id="layer1"><path
       d="m 167.14205,35.605974 c 0,-2.479807 -2.25969,-4.768204 -4.87352,-4.768204 h -15.07925 c -2.55895,0 -4.87702,2.288397 -4.87702,4.768204 v 13.45507 c 0,2.478124 2.26496,4.758134 4.87702,4.758134 h 15.07925 c 2.61383,0 4.87352,-2.28001 4.87352,-4.758134 z m 5.37645,0 v 13.549091 c 0,4.998219 -4.63626,9.059584 -10.24997,9.059584 h -15.07925 c -5.66329,0 -10.24996,-4.108376 -10.24996,-9.153605 v -13.45507 c 0,-5.048588 4.58667,-9.156966 10.24996,-9.156966 h 15.07925 c 5.66687,0 10.24997,3.88004 10.24997,9.156966 z m -47.50261,22.608675 h 5.42424 V 26.449008 h -5.42424 z M 92.248933,47.563421 109.54352,41.300956 c 7.53872,-2.75683 8.96963,-7.704682 8.96963,-14.851948 H 85.051985 v 4.388762 h 27.992595 c -0.34517,2.988518 -2.37299,4.998219 -4.83451,5.888058 l -17.096285,6.262471 c -7.69103,2.800481 -8.277186,7.237933 -8.277186,15.22635 H 118.51315 V 53.819178 H 88.301585 c 0.19833,-3.545935 1.28393,-5.271895 3.947348,-6.255757 z M 71.28856,58.214649 h 5.420724 V 26.449008 H 71.28856 Z M 59.628957,26.497696 h 5.318003 v 11.346309 c 0,1.690698 -0.789821,3.089261 -1.62568,4.437453 l -7.983208,12.759987 c -2.904275,4.670828 -11.921699,4.529796 -14.783475,0 L 32.332312,42.004433 C 31.682389,41.027287 30.846529,39.433966 30.846529,37.844005 V 26.497696 h 5.371135 v 11.813061 c 0,0.186333 0.148728,0.614492 0.198326,0.701797 l 8.328537,13.460109 c 1.182959,1.913995 5.371137,1.913995 6.554096,0 l 8.029259,-13.225056 c 0.150544,-0.282076 0.301024,-0.790787 0.301024,-0.93685 z"
       id="Fill-1-2"
       style="fill:#000000;fill-rule:evenodd;stroke:none;stroke-width:1.60223" /></g></svg>
