<?xml version="1.0" encoding="UTF-8" standalone="no"?>
<!-- Created with Inkscape (http://www.inkscape.org/) -->

<svg
   width="760"
   height="320"
   viewBox="0 0 201.08346 84.666666"
   version="1.1"
   id="svg5"
   xml:space="preserve"
   inkscape:version="1.2.2 (732a01da63, 2022-12-09)"
   sodipodi:docname="logo-6.svg"
   xmlns:inkscape="http://www.inkscape.org/namespaces/inkscape"
   xmlns:sodipodi="http://sodipodi.sourceforge.net/DTD/sodipodi-0.dtd"
   xmlns="http://www.w3.org/2000/svg"
   xmlns:svg="http://www.w3.org/2000/svg"><sodipodi:namedview
     id="namedview7"
     pagecolor="#ffffff"
     bordercolor="#000000"
     borderopacity="0.25"
     inkscape:showpageshadow="2"
     inkscape:pageopacity="0.0"
     inkscape:pagecheckerboard="0"
     inkscape:deskcolor="#d1d1d1"
     inkscape:document-units="mm"
     showgrid="false"
     showguides="true"
     inkscape:zoom="1.3228492"
     inkscape:cx="493.63148"
     inkscape:cy="137.95979"
     inkscape:window-width="1350"
     inkscape:window-height="728"
     inkscape:window-x="-8"
     inkscape:window-y="0"
     inkscape:window-maximized="0"
     inkscape:current-layer="layer1"><sodipodi:guide
       position="9.9707174,16.215243"
       orientation="1,0"
       id="guide200"
       inkscape:locked="false" /><sodipodi:guide
       position="189.98475,41.514478"
       orientation="1,0"
       id="guide202"
       inkscape:locked="false" /><sodipodi:guide
       position="35.351815,74.716182"
       orientation="0,-1"
       id="guide258"
       inkscape:locked="false" /><sodipodi:guide
       position="55.015731,10.133813"
       orientation="0,-1"
       id="guide260"
       inkscape:locked="false" /><sodipodi:guide
       position="101.40524,33.664064"
       orientation="1,0"
       id="guide320"
       inkscape:locked="false" /><sodipodi:guide
       position="36.205737,42.238095"
       orientation="0,-1"
       id="guide322"
       inkscape:locked="false" /></sodipodi:namedview><defs
     id="defs2"><style
       id="style3233">.cls-1{fill:#fff}</style><clipPath
       clipPathUnits="userSpaceOnUse"
       id="clipPath3055"><path
         inkscape:connector-curvature="0"
         d="m 263.19,605.947 68.896,0 0,41.062 -68.896,0 0,-41.062 z"
         id="path3057" /></clipPath></defs><g
     inkscape:label="Capa 1"
     inkscape:groupmode="layer"
     id="layer1"><g
       transform="matrix(0.52290161,0,0,0.52290161,-140.41049,-299.61351)"
       id="layer1-9"><g
         transform="matrix(0,1.5459704,1.5459704,0,415.67057,649.33146)"
         id="g9277"><path
           id="path9279"
           style="fill:#e6000d;fill-opacity:1;fill-rule:nonzero;stroke:none"
           d="m 0,0 v -16.982 h -9.878 v -8.776 h 25.835 v 8.776 H 5.577 V 0 h 10.38 V 8.775 H -9.878 V 0 H 0"
           inkscape:connector-curvature="0" /></g><g
         transform="matrix(0,1.5459704,1.5459704,0,451.89266,657.95179)"
         id="g9281"><path
           id="path9283"
           style="fill:#e6000d;fill-opacity:1;fill-rule:nonzero;stroke:none"
           d="M 0,0 -10.032,6.111 0,12.035 V 0 M -15.455,2.707 10.38,-13.032 v 6.709 l -5.286,3.219 v 18.145 l 5.286,3.123 V 28.877 L -15.455,13.142 V 2.707"
           inkscape:connector-curvature="0" /></g><g
         transform="matrix(0,1.5459704,1.5459704,0,550.35088,651.36905)"
         id="g9285"><path
           id="path9287"
           style="fill:#e6000d;fill-opacity:1;fill-rule:nonzero;stroke:none"
           d="m 0,0 c -2.738,2.09 -6.749,1.807 -9.046,-2.207 -2.147,-3.74 -2.937,-10.879 -2.937,-15.34 0,-7.136 0.485,-11.73 1.153,-15.638 h 25.469 v 8.773 H -6.965 c -0.626,3.16 -0.64,6.369 -0.584,7.568 0.154,3.483 0.696,5.444 1.807,7.01 1.155,1.619 3.708,2.059 5.48,-0.041 1.321,-1.574 2.359,-4.765 1.27,-11.902 l 1.655,-1.008 11.976,13.494 V 2.656 L 4.259,-9.347 C 3.885,-6.463 2.732,-2.09 0,0"
           inkscape:connector-curvature="0" /></g><g
         transform="matrix(0,1.5459704,1.5459704,0,346.11736,647.86124)"
         id="g9289"><path
           id="path9291"
           style="fill:#e6000d;fill-opacity:1;fill-rule:nonzero;stroke:none"
           d="m 0,0 c -0.985,-5.067 -1.597,-9.373 -3.241,-9.373 -1.82,0 -2.289,3.482 -1.766,8.416 0.494,4.666 1.715,9.066 3.461,13.17 L -6.659,15.33 C -7.922,12.013 -9.54,5.177 -9.724,-1.03 c -0.197,-6.8 0.413,-18.281 7.289,-18.777 6.294,-0.453 7.798,8.516 9.166,14.397 1.335,5.736 1.818,11.113 3.804,11.113 1.396,0 2.486,-1.895 2.11,-6.908 C 12.194,-7.239 10.545,-12.373 8,-17.494 l 5.588,-3.403 c 2.22,5.68 4.003,13.129 4.114,19.84 C 17.835,6.922 16.548,15.931 9.714,16.135 4.011,16.302 2.019,10.394 0,0"
           inkscape:connector-curvature="0" /></g><g
         transform="matrix(0,1.5459704,1.5459704,0,594.18532,651.0413)"
         id="g9293"><path
           id="path9295"
           style="fill:#e6000d;fill-opacity:1;fill-rule:nonzero;stroke:none"
           d="m 0,0 c 1.242,-1.516 1.682,-3.731 1.672,-7.227 -0.009,-2.578 -0.483,-5.246 -0.976,-7.42 h -7.449 c -0.626,3.158 -0.635,6.424 -0.585,7.623 0.148,3.502 0.741,5.545 1.808,7.063 C -4.421,1.619 -1.759,2.146 0,0 m -8.834,7.67 c -2.115,-3.573 -2.937,-10.262 -2.937,-15.397 0,-7.139 0.485,-11.787 1.152,-15.695 h 25.47 v 8.775 H 5.52 c 0.453,2.713 0.716,6.112 0.694,9.053 C 6.153,1.586 4.466,6.922 1.822,9.351 -1.94,12.812 -6.483,11.65 -8.834,7.67"
           inkscape:connector-curvature="0" /></g></g></g></svg>
