<?xml version="1.0" encoding="UTF-8" standalone="no"?>
<!-- Created with Inkscape (http://www.inkscape.org/) -->

<svg
   width="760"
   height="320"
   viewBox="0 0 201.08346 84.666666"
   version="1.1"
   id="svg5"
   xml:space="preserve"
   inkscape:version="1.2.2 (732a01da63, 2022-12-09)"
   sodipodi:docname="logo-5.svg"
   xmlns:inkscape="http://www.inkscape.org/namespaces/inkscape"
   xmlns:sodipodi="http://sodipodi.sourceforge.net/DTD/sodipodi-0.dtd"
   xmlns="http://www.w3.org/2000/svg"
   xmlns:svg="http://www.w3.org/2000/svg"><sodipodi:namedview
     id="namedview7"
     pagecolor="#ffffff"
     bordercolor="#000000"
     borderopacity="0.25"
     inkscape:showpageshadow="2"
     inkscape:pageopacity="0.0"
     inkscape:pagecheckerboard="0"
     inkscape:deskcolor="#d1d1d1"
     inkscape:document-units="mm"
     showgrid="false"
     showguides="true"
     inkscape:zoom="1.8707912"
     inkscape:cx="415.86682"
     inkscape:cy="163.29989"
     inkscape:window-width="1350"
     inkscape:window-height="728"
     inkscape:window-x="-8"
     inkscape:window-y="0"
     inkscape:window-maximized="0"
     inkscape:current-layer="layer1"><sodipodi:guide
       position="9.9707174,16.215243"
       orientation="1,0"
       id="guide200"
       inkscape:locked="false" /><sodipodi:guide
       position="189.98475,41.514478"
       orientation="1,0"
       id="guide202"
       inkscape:locked="false" /><sodipodi:guide
       position="35.351815,74.716182"
       orientation="0,-1"
       id="guide258"
       inkscape:locked="false" /><sodipodi:guide
       position="55.015731,10.133813"
       orientation="0,-1"
       id="guide260"
       inkscape:locked="false" /><sodipodi:guide
       position="101.40524,33.664064"
       orientation="1,0"
       id="guide320"
       inkscape:locked="false" /><sodipodi:guide
       position="36.205737,42.238095"
       orientation="0,-1"
       id="guide322"
       inkscape:locked="false" /></sodipodi:namedview><defs
     id="defs2"><style
       id="style3233">.cls-1{fill:#fff}</style><clipPath
       clipPathUnits="userSpaceOnUse"
       id="clipPath3055"><path
         inkscape:connector-curvature="0"
         d="m 263.19,605.947 68.896,0 0,41.062 -68.896,0 0,-41.062 z"
         id="path3057" /></clipPath></defs><g
     inkscape:label="Capa 1"
     inkscape:groupmode="layer"
     id="layer1"><g
       id="g3053"
       clip-path="url(#clipPath3055)"
       transform="matrix(1.4511546,0,0,-1.4511546,-330.19509,951.43327)"><g
         id="g3059"
         transform="translate(332.086,605.9463)"><path
           d="m 0,0 h -68.896 v 30.878 c 0,5.599 4.584,10.184 10.185,10.184 H 0 Z"
           style="fill:#ed1c24;fill-opacity:1;fill-rule:nonzero;stroke:none"
           id="path3061"
           inkscape:connector-curvature="0" /></g><g
         id="g3063"
         transform="translate(273.375,629.3974)"><path
           d="m 0,0 h 5.443 v -9.75 h 4.868 V 0 h 5.437 V 3.936 H 0 Z"
           style="fill:#ffffff;fill-opacity:1;fill-rule:nonzero;stroke:none"
           id="path3065"
           inkscape:connector-curvature="0" /></g><g
         id="g3067"
         transform="translate(298.6641,622.4658)"><path
           d="m 0,0 c -1.131,0 -1.98,0.327 -2.701,0.998 -0.705,0.657 -1.211,1.66 -1.211,3.026 v 0.205 c 0,1.359 0.506,2.378 1.211,3.03 0.721,0.676 1.576,0.988 2.701,0.988 2.658,0 3.225,-1.582 3.395,-2.613 h 4.32 c -0.106,2.082 -1.098,3.545 -2.5,4.519 -1.395,0.97 -3.016,1.465 -5.168,1.465 -2.645,0 -4.524,-0.589 -6.069,-1.898 C -7.578,8.384 -8.406,6.281 -8.406,4.179 V 4.072 c 0,-2.298 0.721,-4.021 2.316,-5.471 1.492,-1.356 3.668,-1.976 6.086,-1.968 2.143,0 3.983,0.503 5.256,1.46 1.404,1.061 2.363,2.55 2.478,4.514 H 3.42 C 3.301,1.782 2.781,0 0,0"
           style="fill:#ffffff;fill-opacity:1;fill-rule:nonzero;stroke:none"
           id="path3069"
           inkscape:connector-curvature="0" /></g><g
         id="g3071"
         transform="translate(313.6856,623.4004)"><path
           d="M 0,0 V 9.933 H -4.687 V -3.748 H 7.688 V 0 Z"
           style="fill:#ffffff;fill-opacity:1;fill-rule:nonzero;stroke:none"
           id="path3073"
           inkscape:connector-curvature="0" /></g></g></g></svg>
