<?xml version="1.0" encoding="UTF-8" standalone="no"?>
<!-- Created with Inkscape (http://www.inkscape.org/) -->

<svg
   width="760"
   height="320"
   viewBox="0 0 201.08346 84.666666"
   version="1.1"
   id="svg5"
   xml:space="preserve"
   inkscape:version="1.2.2 (732a01da63, 2022-12-09)"
   sodipodi:docname="logo-1.svg"
   xmlns:inkscape="http://www.inkscape.org/namespaces/inkscape"
   xmlns:sodipodi="http://sodipodi.sourceforge.net/DTD/sodipodi-0.dtd"
   xmlns="http://www.w3.org/2000/svg"
   xmlns:svg="http://www.w3.org/2000/svg"><sodipodi:namedview
     id="namedview7"
     pagecolor="#ffffff"
     bordercolor="#000000"
     borderopacity="0.25"
     inkscape:showpageshadow="2"
     inkscape:pageopacity="0.0"
     inkscape:pagecheckerboard="0"
     inkscape:deskcolor="#d1d1d1"
     inkscape:document-units="mm"
     showgrid="false"
     showguides="true"
     inkscape:zoom="0.66142459"
     inkscape:cx="684.88533"
     inkscape:cy="219.97973"
     inkscape:window-width="1350"
     inkscape:window-height="728"
     inkscape:window-x="-8"
     inkscape:window-y="0"
     inkscape:window-maximized="0"
     inkscape:current-layer="layer1"><sodipodi:guide
       position="9.9707174,16.215243"
       orientation="1,0"
       id="guide200"
       inkscape:locked="false" /><sodipodi:guide
       position="189.98475,41.514478"
       orientation="1,0"
       id="guide202"
       inkscape:locked="false" /><sodipodi:guide
       position="35.351815,74.716182"
       orientation="0,-1"
       id="guide258"
       inkscape:locked="false" /><sodipodi:guide
       position="55.015731,10.133813"
       orientation="0,-1"
       id="guide260"
       inkscape:locked="false" /></sodipodi:namedview><defs
     id="defs2" /><g
     inkscape:label="Capa 1"
     inkscape:groupmode="layer"
     id="layer1"><g
       id="g8882"
       transform="matrix(0.26458333,0,0,0.26458333,-4.2714671,30.145863)">
	<path
   id="path10"
   inkscape:connector-curvature="0"
   fill="#174b95"
   d="M 718.922,-10.826 C 727.824,40.192 588.939,107.004 408.676,138.4 228.435,169.796 75.102,153.865 66.214,102.826 57.333,51.801 196.256,-14.99 376.497,-46.379 c 180.248,-31.41 333.552,-15.479 342.425,35.553 z" />
	<g
   id="g8872">
		<polygon
   id="polygon16"
   fill="#ffffff"
   points="533.376,11.862 548.905,64.911 549.278,64.911 548.353,11.862 565.08,11.862 565.08,78.725 541.029,78.725 524.336,23.851 523.978,23.851 524.904,78.725 508.283,78.725 508.283,11.862 " />
		<polygon
   id="polygon18"
   fill="#ffffff"
   points="217.708,79.428 230.236,11.862 260.29,11.862 272.76,79.428 254.589,79.428 245.586,18.122 245.206,18.122 235.951,79.428 " />
		<polygon
   id="polygon20"
   fill="#ffffff"
   points="359.905,11.862 361.37,79.428 344.484,79.428 344.038,18.682 343.687,18.682 332.393,79.428 315.248,79.428 303.948,18.682 303.582,18.682 303.158,79.428 286.236,79.428 287.73,11.862 315.299,11.862 323.642,63.512 324.001,63.512 332.35,11.862 " />
		<path
   id="path22"
   inkscape:connector-curvature="0"
   fill="#ffffff"
   d="m 189.256,60.366 c 0.661,1.637 0.459,3.741 0.15,5.012 -0.567,2.247 -2.089,4.537 -6.583,4.537 -4.236,0 -6.806,-2.427 -6.806,-6.139 v -6.54 h -18.121 l -0.014,5.233 c 0,15.063 11.86,19.607 24.568,19.607 12.219,0 22.285,-4.178 23.886,-15.437 0.818,-5.836 0.208,-9.656 -0.072,-11.1 -2.85,-14.143 -28.496,-18.364 -30.405,-26.276 -0.323,-1.356 -0.23,-2.792 -0.072,-3.561 0.467,-2.154 1.946,-4.53 6.175,-4.53 3.949,0 6.281,2.44 6.281,6.131 0,1.242 0,4.171 0,4.171 h 16.851 V 26.73 c 0,-14.718 -13.21,-17.015 -22.78,-17.015 -12.019,0 -21.84,3.97 -23.634,14.969 -0.489,3.037 -0.561,5.743 0.15,9.132 2.95,13.807 26.951,17.805 30.426,26.55 z" />
		<path
   id="path24"
   inkscape:connector-curvature="0"
   fill="#ffffff"
   d="m 408.963,60.244 c 0.667,1.623 0.452,3.668 0.15,4.94 -0.553,2.238 -2.061,4.493 -6.526,4.493 -4.179,0 -6.727,-2.427 -6.727,-6.053 l -0.015,-6.482 H 377.91 l -0.021,5.162 c 0,14.912 11.753,19.413 24.331,19.413 12.09,0 22.063,-4.121 23.635,-15.277 0.818,-5.794 0.236,-9.563 -0.058,-10.978 -2.835,-14.015 -28.222,-18.193 -30.11,-26.026 -0.323,-1.35 -0.23,-2.771 -0.064,-3.497 0.48,-2.168 1.931,-4.487 6.117,-4.487 3.912,0 6.195,2.384 6.195,6.045 0,1.228 0,4.128 0,4.128 h 16.721 V 26.93 c 0,-14.56 -13.103,-16.843 -22.578,-16.843 -11.883,0 -21.625,3.92 -23.385,14.84 -0.488,2.994 -0.538,5.651 0.158,9.025 2.908,13.663 26.672,17.634 30.112,26.292 z" />
		<path
   id="path26"
   inkscape:connector-curvature="0"
   fill="#ffffff"
   d="m 465.716,69.318 c 4.689,0 6.153,-3.244 6.477,-4.902 0.137,-0.732 0.173,-1.709 0.157,-2.585 V 11.833 h 17.088 v 48.469 c 0.035,1.241 -0.086,3.798 -0.145,4.438 -1.198,12.614 -11.171,16.706 -23.584,16.706 -12.428,0 -22.407,-4.092 -23.592,-16.706 -0.057,-0.64 -0.18,-3.196 -0.143,-4.438 V 11.833 h 17.071 v 49.998 c 0,0.876 0.029,1.86 0.159,2.585 0.366,1.658 1.788,4.902 6.512,4.902 z" />
		<path
   id="path28"
   inkscape:connector-curvature="0"
   fill="#ffffff"
   d="m 606.664,68.608 c 4.896,0 6.605,-3.095 6.921,-4.897 0.122,-0.774 0.158,-1.715 0.15,-2.569 V 51.334 H 606.8 V 41.47 h 23.958 v 18.136 c -0.015,1.264 -0.043,2.197 -0.244,4.451 -1.127,12.292 -11.788,16.678 -23.764,16.678 -11.997,0 -22.645,-4.386 -23.786,-16.678 -0.194,-2.254 -0.223,-3.188 -0.243,-4.451 l 0.014,-28.452 c 0,-1.199 0.15,-3.325 0.28,-4.452 1.501,-12.628 11.738,-16.693 23.735,-16.693 11.982,0 22.472,4.042 23.714,16.693 0.223,2.154 0.151,4.452 0.151,4.452 v 2.254 h -17.038 v -3.784 c 0.015,0.008 -0.021,-1.608 -0.222,-2.57 -0.287,-1.494 -1.588,-4.925 -6.734,-4.925 -4.926,0 -6.368,3.246 -6.727,4.925 -0.209,0.89 -0.288,2.096 -0.288,3.188 v 30.9 c -0.015,0.854 0.035,1.795 0.172,2.569 0.295,1.81 1.996,4.897 6.886,4.897 z" />
	</g>
</g></g></svg>
