<?xml version="1.0" encoding="UTF-8" standalone="no"?>
<!-- Created with Inkscape (http://www.inkscape.org/) -->

<svg
   width="760"
   height="320"
   viewBox="0 0 201.08346 84.666666"
   version="1.1"
   id="svg5"
   xml:space="preserve"
   inkscape:version="1.2.2 (732a01da63, 2022-12-09)"
   sodipodi:docname="logo-2.svg"
   xmlns:inkscape="http://www.inkscape.org/namespaces/inkscape"
   xmlns:sodipodi="http://sodipodi.sourceforge.net/DTD/sodipodi-0.dtd"
   xmlns="http://www.w3.org/2000/svg"
   xmlns:svg="http://www.w3.org/2000/svg"><sodipodi:namedview
     id="namedview7"
     pagecolor="#ffffff"
     bordercolor="#000000"
     borderopacity="0.25"
     inkscape:showpageshadow="2"
     inkscape:pageopacity="0.0"
     inkscape:pagecheckerboard="0"
     inkscape:deskcolor="#d1d1d1"
     inkscape:document-units="mm"
     showgrid="false"
     showguides="true"
     inkscape:zoom="0.93539562"
     inkscape:cx="513.15186"
     inkscape:cy="140.58223"
     inkscape:window-width="1350"
     inkscape:window-height="728"
     inkscape:window-x="-8"
     inkscape:window-y="0"
     inkscape:window-maximized="0"
     inkscape:current-layer="layer1"><sodipodi:guide
       position="9.9707174,16.215243"
       orientation="1,0"
       id="guide200"
       inkscape:locked="false" /><sodipodi:guide
       position="189.98475,41.514478"
       orientation="1,0"
       id="guide202"
       inkscape:locked="false" /><sodipodi:guide
       position="35.351815,74.716182"
       orientation="0,-1"
       id="guide258"
       inkscape:locked="false" /><sodipodi:guide
       position="55.015731,10.133813"
       orientation="0,-1"
       id="guide260"
       inkscape:locked="false" /><sodipodi:guide
       position="101.40524,33.664064"
       orientation="1,0"
       id="guide320"
       inkscape:locked="false" /><sodipodi:guide
       position="36.205737,42.238095"
       orientation="0,-1"
       id="guide322"
       inkscape:locked="false" /></sodipodi:namedview><defs
     id="defs2" /><g
     inkscape:label="Capa 1"
     inkscape:groupmode="layer"
     id="layer1"><g
       id="g351"
       transform="matrix(0.73257067,0,0,0.73257067,37.1101,14.280854)">
	<path
   fill="#a50034"
   d="M 38.65,77.239 C 59.978,77.239 77.3,59.968 77.3,38.628 77.3,17.287 59.978,0 38.65,0 17.289,0 0,17.287 0,38.628 0,59.968 17.289,77.239 38.65,77.239"
   id="path341" />
	<polygon
   fill="#ffffff"
   points="47.868,52.516 40.2,52.516 40.2,21.676 37.095,21.676 37.095,55.563 47.868,55.563 "
   id="polygon343" />
	<path
   fill="#ffffff"
   d="m 26.308,30.922 c 2.563,0 4.629,-2.084 4.629,-4.629 0,-2.547 -2.066,-4.639 -4.629,-4.639 -2.563,0 -4.629,2.092 -4.629,4.639 0,2.547 2.066,4.629 4.629,4.629"
   id="path345" />
	<path
   fill="#ffffff"
   d="M 40.199,6.304 C 39.795,6.284 39.027,6.259 38.66,6.259 20.82,6.259 6.301,20.783 6.301,38.612 c 0,8.66 3.365,16.777 9.46,22.881 6.12,6.09 14.241,9.455 22.899,9.455 8.625,0 16.744,-3.365 22.853,-9.455 6.11,-6.104 9.491,-14.221 9.491,-22.881 V 37.173 H 69.695 47.898 v 2.978 h 20.024 c 0,0.065 0,0.381 -0.014,0.463 C 66.89,55.856 54.16,67.928 38.66,67.928 30.814,67.928 23.457,64.877 17.92,59.336 12.365,53.818 9.304,46.467 9.304,38.611 c 0,-7.811 3.061,-15.2 8.616,-20.735 5.537,-5.53 12.894,-8.581 20.74,-8.581 0.338,0 1.16,0 1.539,0.02 z"
   id="path347" />
	<path
   fill="#6b6b6b"
   d="M 106.367,13.002 H 94.753 V 63.28 h 35.672 v -9.787 h -24.058 z m 49.607,31.118 h 9.459 v 8.791 c -1.744,0.664 -5.145,1.326 -8.381,1.326 -10.453,0 -13.935,-5.309 -13.935,-16.092 0,-10.283 3.316,-16.346 13.769,-16.346 5.809,0 9.127,1.826 11.861,5.311 l 7.221,-6.639 c -4.398,-6.3 -12.115,-8.208 -19.33,-8.208 -16.264,0 -24.807,8.876 -24.807,25.798 0,16.84 7.715,25.965 24.725,25.965 7.797,0 15.43,-1.99 19.576,-4.893 v -24.39 h -20.158 z"
   id="path349" />
</g></g></svg>
